# xmcd CD database file
#
# Track frame offsets:
#	150
#	23875
#	41540
#	61927
#	83320
#	106505
#	126575
#	148305
#	169145
#	226940
#
# Disc length: 4440 seconds
#
# Revision: 7
# Processed by: cddbd v1.5.2PL0 Copyright (c) Steve Scherf et al.
# Submitted via: CDex 1.70beta3
#
DISCID=7a11560a
DTITLE=Various Artist - ヒカルの碁 主題歌全集 　ベスト　オブ　ヒカルの碁 fuck CCCD
DYEAR=2003
DGENRE=JPop
TTITLE0=Dream/Get Over
TTITLE1=Kids Alive/ボクらの冒険
TTITLE2=観月ありさ/ヒトミノチカラ
TTITLE3=HΛL/I'll Be The One
TTITLE4=Dream/SINCERELY〜ever Dream
TTITLE5=Shela/Days
TTITLE6=片瀬那奈/Fantasy
TTITLE7=Dream/Music Is My Thing
TTITLE8=Dream/GET Over Special Mix
TTITLE9=track10
EXTD=YEAR: 2003
EXTT0=
EXTT1=
EXTT2=
EXTT3=
EXTT4=
EXTT5=
EXTT6=
EXTT7=
EXTT8=
EXTT9=
PLAYORDER=
